<svg width="40" height="40" viewBox="0 0 40 40" fill="none" xmlns="http://www.w3.org/2000/svg">
    <!-- Left endpoint -->
    <rect x="3" y="13" width="5" height="5" rx="1" fill="none" stroke="#6E6E6E" stroke-width="1.2"/>
    <rect x="3" y="22" width="5" height="5" rx="1" fill="none" stroke="#6E6E6E" stroke-width="1.2"/>
    <!-- Right endpoint -->
    <rect x="32" y="13" width="5" height="5" rx="1" fill="none" stroke="#6E6E6E" stroke-width="1.2"/>
    <rect x="32" y="22" width="5" height="5" rx="1" fill="none" stroke="#6E6E6E" stroke-width="1.2"/>
    <!-- Center proxy node -->
    <rect x="15" y="12" width="10" height="16" rx="2" fill="none" stroke="#6E6E6E" stroke-width="1.2"/>
    <!-- Arrows: left to center -->
    <path d="M8 15.5H14.5" stroke="#6E6E6E" stroke-width="1" stroke-linecap="round"/>
    <path d="M12.5,14 L14.5,15.5 L12.5,17" stroke="#6E6E6E" stroke-width="1" stroke-linecap="round" stroke-linejoin="round" fill="none"/>
    <path d="M8 24.5H14.5" stroke="#6E6E6E" stroke-width="1" stroke-linecap="round"/>
    <path d="M12.5,23 L14.5,24.5 L12.5,26" stroke="#6E6E6E" stroke-width="1" stroke-linecap="round" stroke-linejoin="round" fill="none"/>
    <!-- Arrows: center to right -->
    <path d="M25.5 15.5H32" stroke="#6E6E6E" stroke-width="1" stroke-linecap="round"/>
    <path d="M30,14 L32,15.5 L30,17" stroke="#6E6E6E" stroke-width="1" stroke-linecap="round" stroke-linejoin="round" fill="none"/>
    <path d="M25.5 24.5H32" stroke="#6E6E6E" stroke-width="1" stroke-linecap="round"/>
    <path d="M30,23 L32,24.5 L30,26" stroke="#6E6E6E" stroke-width="1" stroke-linecap="round" stroke-linejoin="round" fill="none"/>
</svg>
